<svg xmlns="http://www.w3.org/2000/svg" viewBox="0 0 241.57 196.45"><defs><style>.cls-1,.cls-3{fill:#3c2415;}.cls-1,.cls-2,.cls-3{stroke:#231f20;stroke-miterlimit:10;}.cls-1,.cls-2{stroke-width:3px;}.cls-2{fill:#fff200;}.cls-3{stroke-width:0.75px;}</style></defs><title>banana-icon</title><g id="Layer_2" data-name="Layer 2"><g id="Layer_1-2" data-name="Layer 1"><path class="cls-1" d="M1.5,13.32C1.5,29,7.91,36.71,7.91,36.71L23,19.92S13,14.7,12.26,4.51,1.5,13.32,1.5,13.32Z"/><path class="cls-2" d="M240,171.22c1.23-10.46-30.93-14.28-85-44.72C57.83,71.71,27,8,12.27,16.59-4.56,26.4,8.07,126.13,76.21,170.8,143.08,214.64,238,188.78,240,171.22Z"/><path class="cls-3" d="M12.27,16.59c-.53.3,16.84,60.66,71,108.92,62,55.25,135.72,62.11,135.88,61.63S148.65,179,87.29,125.61C31.51,77.06,12.81,16.3,12.27,16.59Z"/></g></g></svg>