<svg xmlns="http://www.w3.org/2000/svg" viewBox="0 0 396.08 237.47"><defs><style>.cls-1{fill:#414042;}.cls-2,.cls-4{fill:#3c2415;}.cls-2,.cls-3,.cls-4{stroke:#231f20;stroke-miterlimit:10;}.cls-2,.cls-3{stroke-width:3px;}.cls-3{fill:#fff200;}.cls-4{stroke-width:0.75px;}</style></defs><title>banana</title><g id="Layer_2" data-name="Layer 2"><g id="Layer_1-2" data-name="Layer 1"><rect class="cls-1" width="396.08" height="237.47"/><path class="cls-2" d="M104.38,24.44c0,15.65,6.41,23.39,6.41,23.39L125.9,31s-10-5.22-10.76-15.41S104.38,24.44,104.38,24.44Z"/><path class="cls-3" d="M342.92,182.34c1.22-10.47-30.94-14.29-85-44.73C160.71,82.82,129.85,19.14,115.16,27.7,98.32,37.51,111,137.24,179.09,181.91,246,225.75,340.86,199.9,342.92,182.34Z"/><path class="cls-4" d="M115.16,27.7c-.54.3,16.83,60.66,71,108.92,62,55.25,135.72,62.11,135.88,61.63s-70.51-8.12-131.87-61.53C134.39,88.17,115.7,27.41,115.16,27.7Z"/></g></g></svg>